<?xml version="1.0" encoding="utf-8"?>
<!-- Generator: Adobe Illustrator 15.1.0, SVG Export Plug-In . SVG Version: 6.00 Build 0)  -->
<!DOCTYPE svg PUBLIC "-//W3C//DTD SVG 1.1//EN" "http://www.w3.org/Graphics/SVG/1.1/DTD/svg11.dtd">
<svg version="1.1" id="Calque_1" xmlns="http://www.w3.org/2000/svg" xmlns:xlink="http://www.w3.org/1999/xlink" x="0px" y="0px"
	 width="425.197px" height="83.295px" viewBox="0 0 425.197 83.295" enable-background="new 0 0 425.197 83.295"
	 xml:space="preserve">
<g>
	<g>
		<path fill="#0070BC" d="M143.606,62.012c-7.42,7.249-15.138,8.402-21.353,8.402c-16.86,0-26.821-15.104-26.821-28.639
			c0-12.419,6.618-22.388,16.333-26.471c16.19-6.527,28.133,3.066,29.109,3.843l9.194-8.958C137.697-0.5,122.538-1,114.056,0.934
			C98.654,4.448,82.589,19.308,82.589,41.775c0,22.653,17.055,41.27,39.706,41.444c11.204,0.09,20.409-3.028,30.335-12.201
			C152.54,70.921,143.693,61.928,143.606,62.012"/>
		<path fill="#0070BC" d="M200.908,37.709c-0.021-0.017-12.659-2.226-12.659-2.226c-9.111-1.628-13.489-5.281-13.489-11.01
			c0-7.521,7.396-12.086,17.898-12.086c8.239,0,14.673,1.896,20.985,7.013l9.063-9.464C214.119,3.16,205.79,0,193.735,0
			C175.628,0,161.8,9.791,161.8,24.363c0,6.708,2.132,11.767,6.541,15.454c3.965,3.326,9.715,5.851,18.068,7.274l11.232,1.858
			c9.555,1.57,14.506,3.917,14.506,9.569c0,10.965-11.788,12.277-20.162,12.277c-12.523,0-18.666-2.348-24.245-8.208l-9.069,8.951
			c8.423,8.11,18.672,11.735,33.241,11.735c9.756,0,18.034-2.257,23.905-6.556c6.152-4.492,9.405-10.485,9.405-18.27
			C225.223,43.053,214.195,40.341,200.908,37.709"/>
		<path fill="#0070BC" d="M420.083,14.572C414.684,6.649,405.535,0.08,393.157,0.08c-10.065,0-19.134,4.569-24.067,13.544
			C364.146,4.649,355.076,0.08,344.997,0.08c-12.374,0-21.513,6.569-26.933,14.492c-4.531,6.663-5.094,17.548-5.094,21.422v47.197
			h14.222V36.54c0-12.652,4.652-23.506,17.513-23.506c12.753,0,16.951,11.055,16.951,23.506v46.651h14.846V36.54
			c0-12.451,4.198-23.506,16.947-23.506c12.874,0,17.513,10.854,17.513,23.506v46.651h14.235V35.994
			C425.197,32.12,424.631,21.235,420.083,14.572"/>
		<path fill="#0070BC" d="M245.767,34.234c0.56-6.18,5.886-21.12,22.617-21.12c16.725,0,21.939,14.937,22.474,21.12H245.767z
			 M267.835,0.243c-21.586,0-36.123,17.86-36.123,41.587c0,25.486,15.843,41.465,38.862,41.465c12.559,0,21.423-3.194,29.929-11.673
			l-8.909-9.034c-5.871,5.979-13.988,8.777-22.804,8.777c-12.014,0-22.808-9.326-23.211-25.171l58.826,0.007
			C305.902,16.975,288.577,0.243,267.835,0.243"/>
	</g>
	<g>
		<path fill="#878787" d="M18.456,28.597c0,5.097-4.13,9.235-9.227,9.235C4.13,37.833,0,33.694,0,28.597
			c0-5.099,4.13-9.229,9.229-9.229C14.326,19.369,18.456,23.499,18.456,28.597z"/>
		<path fill="#878787" d="M45.56,28.597c0,5.097-4.139,9.235-9.236,9.235c-5.097,0-9.229-4.138-9.229-9.235
			c0-5.099,4.132-9.229,9.229-9.229C41.421,19.369,45.56,23.499,45.56,28.597z"/>
		<path fill="#878787" d="M18.456,55.7c0,5.097-4.13,9.229-9.227,9.229C4.13,64.928,0,60.796,0,55.7s4.13-9.235,9.229-9.235
			C14.326,46.464,18.456,50.603,18.456,55.7z"/>
		<path fill="#878787" d="M45.56,55.7c0,5.097-4.139,9.229-9.236,9.229c-5.097,0-9.229-4.132-9.229-9.229s4.132-9.235,9.229-9.235
			C41.421,46.464,45.56,50.603,45.56,55.7z"/>
	</g>
</g>
</svg>
